REM MD5 b9e17787f8c67c10888e73355301ccc5
FILE "Official U.S. PlayStation Magazine Demo Disc 24 (USA).bin" BINARY
  TRACK 01 MODE2/2352
    INDEX 01 00:00:00
  TRACK 02 AUDIO
    INDEX 00 36:01:34
    INDEX 01 36:03:34
  TRACK 03 AUDIO
    INDEX 00 40:44:52
    INDEX 01 40:46:52
  TRACK 04 AUDIO
    INDEX 00 41:46:26
    INDEX 01 41:48:26
REM LEADOUT 41:54:22
